<?xml version="1.0" standalone="no"?>
<!DOCTYPE svg PUBLIC "-//W3C//DTD SVG 20010904//EN"
 "http://www.w3.org/TR/2001/REC-SVG-20010904/DTD/svg10.dtd">
<svg version="1.0" xmlns="http://www.w3.org/2000/svg"
 width="500.000000pt" height="500.000000pt" viewBox="0 0 500.000000 500.000000"
 preserveAspectRatio="xMidYMid meet">

<g transform="translate(0.000000,500.000000) scale(0.100000,-0.100000)"
fill="#000000" stroke="none">
<path d="M2430 4058 c-72 -78 -165 -148 -270 -202 -148 -76 -172 -81 -370 -81
-187 1 -294 16 -368 54 -22 11 -62 23 -90 27 -115 15 -214 -87 -151 -155 22
-23 38 -24 110 -6 23 6 28 3 38 -26 14 -41 14 -141 0 -173 -13 -29 -84 -82
-122 -91 -15 -4 -29 -11 -32 -15 -3 -5 20 -29 50 -54 97 -79 132 -132 140
-213 9 -93 -29 -137 -87 -99 -28 18 -60 6 -90 -35 -16 -22 -17 -29 -7 -52 16
-35 67 -67 107 -67 21 0 36 8 51 28 19 25 22 25 32 10 9 -17 54 -18 709 -18
593 0 700 2 700 14 0 18 100 36 201 36 95 0 143 21 147 66 2 25 -4 37 -38 68
-45 41 -47 66 -6 66 20 0 30 9 47 43 12 23 32 56 45 74 13 17 24 41 24 53 0
11 7 23 15 26 38 15 11 31 -67 40 -53 7 -109 22 -155 42 -39 18 -81 32 -92 32
-12 0 -66 -22 -121 -50 -55 -27 -110 -50 -123 -50 -14 0 -44 18 -72 42 l-47
42 -61 -13 c-55 -11 -124 -41 -169 -73 -14 -10 -21 -8 -41 14 -67 72 -163 87
-240 38 -44 -28 -55 -30 -140 -30 -59 0 -99 -5 -110 -12 -9 -7 -47 -53 -86
-101 -39 -49 -81 -97 -95 -108 -29 -23 -122 -66 -154 -71 l-22 -3 -4 225 c-4
248 -17 327 -75 455 l-30 65 25 0 c14 0 65 -11 114 -25 136 -38 201 -47 367
-52 165 -4 213 3 340 55 93 38 167 89 257 177 l75 74 66 -65 c77 -75 170 -146
238 -181 50 -25 177 -56 277 -67 47 -6 307 18 318 29 2 1 -52 1 -120 -2 -117
-5 -128 -4 -233 27 -191 56 -367 154 -485 270 -33 33 -61 59 -62 59 -2 -1 -28
-28 -58 -61z m518 -640 c-8 -23 -71 -59 -98 -56 -37 4 -36 31 2 50 40 20 102
24 96 6z m-748 -33 c32 -16 50 -32 50 -43 0 -24 -51 -72 -57 -54 -7 19 -30 14
-53 -10 -16 -17 -23 -19 -32 -10 -18 18 -35 15 -41 -8 -6 -24 -39 -27 -57 -5
-17 21 -30 19 -30 -5 0 -11 -5 -20 -11 -20 -6 0 -22 9 -36 20 -29 23 -53 25
-72 8 -10 -11 -16 -8 -33 15 -13 17 -29 27 -46 27 l-27 1 29 25 c28 25 33 26
110 20 80 -7 82 -6 136 28 67 42 104 44 170 11z m360 17 c0 -20 -28 -32 -78
-32 -63 0 -70 24 -7 27 21 1 40 5 43 8 8 8 42 6 42 -3z"/>
<path d="M3665 3796 c-13 -30 -32 -77 -41 -105 -11 -34 -22 -51 -33 -51 -51
-1 -172 -83 -214 -145 -15 -22 -40 -58 -57 -80 -16 -22 -29 -48 -30 -57 0 -24
44 -24 67 1 10 10 30 21 44 24 14 4 37 22 50 42 13 19 33 35 43 35 11 0 28 8
38 17 19 17 19 14 13 -122 -7 -155 -10 -169 -26 -159 -7 4 -53 8 -102 10 l-91
2 -78 -76 c-85 -82 -92 -102 -65 -182 17 -49 56 -58 261 -59 149 -1 167 -3
162 -17 -3 -9 -6 -18 -6 -20 0 -2 -206 -4 -457 -4 -252 0 -495 -3 -539 -6
l-81 -7 -7 -586 c-3 -322 -9 -716 -12 -875 -5 -214 -4 -287 5 -282 8 5 11 -34
11 -143 0 -168 1 -171 75 -171 34 0 141 43 178 72 18 13 18 16 3 52 -9 21 -16
47 -16 57 0 20 -6 19 192 21 21 0 74 -14 118 -32 72 -29 89 -32 153 -28 40 3
86 12 102 21 59 31 241 186 428 365 39 38 73 97 91 162 21 78 38 326 40 595 1
204 -1 233 -16 255 -10 13 -18 39 -18 57 0 18 -26 114 -58 215 -33 101 -62
207 -65 235 -6 51 -5 53 21 59 49 10 90 33 97 53 9 28 -20 89 -49 102 -18 8
-33 9 -56 1 -56 -20 -70 -1 -70 98 0 70 39 141 110 201 48 41 60 68 42 95 -4
6 -40 28 -79 48 -79 39 -87 51 -81 127 l3 44 67 6 c73 6 90 15 108 59 10 24
10 36 0 60 -14 33 -79 70 -124 70 -23 0 -30 -8 -51 -54z m-105 -214 c0 -30
-56 -92 -83 -92 -9 0 -29 -18 -47 -39 -17 -22 -41 -43 -53 -47 -12 -3 -30 -15
-40 -25 -10 -11 -22 -17 -27 -14 -9 6 -1 17 58 83 18 20 38 47 43 60 5 12 17
25 26 29 10 4 38 22 62 40 53 40 61 41 61 5z m-653 -1069 c-3 -10 -5 -4 -5 12
0 17 2 24 5 18 2 -7 2 -21 0 -30z m148 -393 l-30 -7 30 -8 c53 -14 53 -16 54
-182 2 -146 1 -155 -16 -148 -28 12 -86 18 -80 9 3 -5 -13 -7 -36 -5 l-42 5
35 7 c22 5 9 6 -34 3 -38 -3 -77 -9 -85 -14 -19 -11 -22 -11 109 -20 l105 -7
-115 1 -115 1 -8 70 c-4 39 -10 77 -14 85 -13 31 -14 62 -2 54 8 -5 9 -3 4 7
-5 7 -10 27 -12 44 -1 16 -5 45 -8 63 -3 17 -4 32 -1 32 2 0 13 3 23 6 17 5
17 5 0 -9 -14 -12 -15 -16 -3 -26 10 -9 15 -8 19 2 3 8 27 18 54 23 l48 8 -50
6 c-30 4 0 6 75 6 69 0 112 -3 95 -6z m298 3 c-24 -2 -62 -2 -85 0 -24 2 -5 4
42 4 47 0 66 -2 43 -4z m82 -21 c-3 -3 -11 0 -18 7 -9 10 -8 11 6 5 10 -3 15
-9 12 -12z m-285 -182 l0 -180 28 0 c15 0 38 -4 52 -8 22 -6 19 -8 -20 -13
-27 -4 7 -6 85 -7 100 -1 134 2 149 13 29 22 36 19 36 -20 l0 -35 -52 1 c-125
1 -278 17 -295 30 -14 12 -16 12 -8 0 6 -11 0 -13 -36 -8 -24 4 -88 9 -143 13
-72 5 -94 10 -81 17 10 5 48 7 91 3 46 -4 75 -3 79 4 3 5 24 10 46 10 l39 0 0
180 c0 153 2 180 15 180 13 0 15 -27 15 -180z m292 158 l50 -21 -5 -91 c-3
-50 -9 -115 -13 -143 -6 -47 -10 -53 -30 -53 -12 0 -26 -4 -29 -10 -3 -6 -51
-10 -108 -10 -126 0 -114 19 13 21 l85 1 -60 10 c-41 7 -75 7 -108 -1 -82 -19
-77 -29 -77 142 0 181 -6 174 138 176 75 1 103 -3 144 -21z m108 -235 l0 -184
-27 3 c-20 2 -28 9 -28 23 0 56 18 341 21 347 3 4 11 5 19 1 12 -4 15 -37 15
-190z m-772 8 c-3 -95 -2 -101 17 -101 24 0 50 -16 39 -23 -5 -2 -23 -2 -41 0
-38 6 -42 18 -41 130 1 52 5 80 11 76 6 -4 8 3 4 17 -4 16 -3 20 5 12 6 -6 9
-50 6 -111z m577 -116 c-23 -8 -85 -10 -85 -3 0 4 21 8 48 7 26 0 43 -2 37 -4z"/>
<path d="M2867 2054 c-13 -14 5 -24 24 -13 15 7 24 7 35 -1 17 -15 144 -27
144 -14 0 5 -23 10 -51 12 -29 2 -60 7 -70 12 -20 11 -72 13 -82 4z"/>
<path d="M2907 1968 c-27 -14 -20 -28 11 -22 15 3 51 1 80 -4 29 -5 52 -6 52
-2 0 4 -15 10 -32 13 -18 2 -47 9 -64 15 -19 6 -37 6 -47 0z"/>
<path d="M2893 1879 c-7 -7 -13 -17 -13 -23 0 -5 6 -2 13 8 12 17 16 17 63 1
51 -16 104 -9 104 15 0 7 -7 7 -21 -1 -20 -10 -51 -9 -109 6 -15 4 -30 1 -37
-6z"/>
<path d="M3063 1713 c9 -2 23 -2 30 0 6 3 -1 5 -18 5 -16 0 -22 -2 -12 -5z"/>
<path d="M3223 2053 c-7 -2 -13 -8 -13 -11 0 -7 15 -9 135 -16 61 -3 63 -3 15
3 -30 4 -65 12 -77 19 -23 12 -39 14 -60 5z"/>
<path d="M3205 1956 c-18 -14 -18 -15 -2 -16 9 0 17 4 17 9 0 12 59 8 68 -5
10 -13 32 -16 32 -5 0 26 -87 38 -115 17z"/>
<path d="M3330 1940 c0 -5 16 -10 35 -10 19 0 35 5 35 10 0 6 -16 10 -35 10
-19 0 -35 -4 -35 -10z"/>
<path d="M3232 1873 c-12 -2 -20 -8 -17 -13 6 -10 45 -1 45 11 0 5 -1 8 -2 8
-2 -1 -13 -4 -26 -6z"/>
<path d="M3270 1865 c0 -12 13 -15 59 -15 33 0 63 5 67 11 4 7 -11 10 -50 7
-31 -2 -56 -1 -56 4 0 4 -4 8 -10 8 -5 0 -10 -7 -10 -15z"/>
<path d="M2055 2843 c145 -7 405 -7 405 0 0 4 -105 6 -232 5 -128 -1 -206 -3
-173 -5z"/>
<path d="M2451 2804 c0 -11 3 -14 6 -6 3 7 2 16 -1 19 -3 4 -6 -2 -5 -13z"/>
<path d="M2440 1808 c0 -534 2 -970 4 -967 8 7 11 1939 4 1939 -4 0 -8 -437
-8 -972z"/>
<path d="M1612 2728 c-16 -16 -15 -28 3 -28 8 0 15 2 15 4 0 2 3 11 6 20 7 19
-7 21 -24 4z"/>
<path d="M1758 2714 c-5 -4 -8 -20 -8 -36 0 -36 -10 -35 -35 2 -24 36 -35 38
-35 6 0 -38 12 -86 21 -86 5 0 6 12 3 28 l-7 27 32 -29 c17 -16 33 -27 36 -24
4 3 5 31 3 63 -2 31 -6 53 -10 49z"/>
<path d="M1841 2701 c-27 -50 -5 -117 35 -109 26 5 29 28 5 28 -12 0 -21 5
-21 10 0 6 9 10 20 10 11 0 20 5 20 10 0 6 -9 10 -20 10 -14 0 -20 7 -20 21 0
16 4 19 21 14 15 -5 20 -3 17 6 -7 23 -45 23 -57 0z"/>
<path d="M1932 2662 c-15 -48 -15 -62 -2 -62 6 0 10 9 10 19 0 11 5 23 10 26
8 5 15 -18 8 -27 -4 -6 23 -48 31 -48 10 0 41 92 34 103 -10 18 -23 4 -23 -25
0 -36 -10 -30 -26 15 -15 44 -29 44 -42 -1z"/>
<path d="M1576 2668 c-31 -44 -11 -108 33 -108 19 0 61 39 61 57 0 17 -50 73
-65 73 -8 0 -21 -10 -29 -22z m60 -29 c21 -24 9 -54 -22 -54 -15 0 -20 8 -22
38 -4 43 14 50 44 16z"/>
<path d="M2067 2592 c-25 -47 -26 -48 -6 -60 17 -11 19 -9 19 17 0 15 9 40 20
54 23 30 25 37 7 37 -8 0 -26 -22 -40 -48z"/>
<path d="M1500 2625 c0 -3 13 -26 29 -52 l29 -46 -44 -30 c-63 -42 -129 -120
-165 -195 -60 -125 -49 -283 28 -405 58 -93 199 -187 305 -205 l43 -8 3 -202
2 -202 80 0 80 0 2 207 3 207 32 7 c44 9 119 55 177 108 106 100 150 203 144
341 -3 76 -8 95 -41 162 -44 90 -132 178 -223 222 -103 51 -271 55 -377 11
-47 -19 -44 -20 -52 18 -7 32 -31 67 -47 67 -4 0 -8 -2 -8 -5z m432 -96 c114
-38 206 -122 262 -239 28 -59 31 -74 31 -166 0 -94 -2 -104 -34 -167 -19 -37
-58 -90 -90 -122 -55 -55 -156 -115 -193 -115 -35 0 -18 19 45 49 146 71 229
188 236 335 2 49 -2 95 -10 120 -65 197 -251 311 -468 285 -117 -13 -249 -108
-308 -222 -25 -47 -28 -62 -28 -162 0 -102 2 -114 28 -163 57 -109 145 -181
261 -212 41 -12 62 -23 64 -34 10 -47 -190 37 -265 112 -170 170 -172 425 -6
591 61 61 95 82 178 112 72 26 216 25 297 -2z m21 -77 c78 -39 148 -111 185
-190 22 -47 26 -71 25 -134 -1 -133 -56 -237 -163 -310 -76 -52 -84 -50 -76
16 l7 53 -47 7 c-26 3 -84 6 -130 6 l-84 0 0 -26 c0 -15 5 -44 12 -65 6 -22 9
-42 6 -44 -14 -14 -122 40 -171 85 -79 72 -119 154 -125 252 -6 100 10 154 64
228 48 65 111 113 187 141 42 16 71 19 149 16 85 -3 106 -8 161 -35z m-33
-586 c0 -32 -14 -36 -121 -36 -102 0 -109 1 -109 20 0 19 7 20 115 20 63 0
115 -2 115 -4z m-20 -75 c0 -10 -9 -30 -21 -45 -30 -38 -101 -37 -141 1 -15
15 -28 35 -28 45 0 16 10 18 95 18 86 0 95 -2 95 -19z m-30 -281 l0 -200 -60
0 -60 0 0 200 0 200 60 0 60 0 0 -200z"/>
<path d="M1703 2215 c0 -27 2 -38 4 -22 2 15 2 37 0 50 -2 12 -4 0 -4 -28z"/>
<path d="M1783 2180 c0 -41 2 -58 4 -37 2 20 2 54 0 75 -2 20 -4 3 -4 -38z"/>
<path d="M1863 2185 c0 -27 2 -38 4 -22 2 15 2 37 0 50 -2 12 -4 0 -4 -28z"/>
<path d="M1447 2599 c-34 -26 -34 -49 -1 -83 32 -31 32 -31 64 -6 18 14 20 20
10 20 -9 0 -21 -5 -28 -12 -8 -8 -16 -5 -31 13 -25 30 -25 31 0 58 28 30 19
37 -14 10z"/>
<path d="M2131 2550 c-45 -57 -28 -69 20 -14 43 50 45 54 26 54 -8 0 -28 -18
-46 -40z"/>
<path d="M2171 2525 c-35 -40 -37 -48 -17 -65 18 -14 62 -9 59 7 -2 7 6 17 17
23 22 12 26 40 8 58 -19 19 -34 14 -67 -23z m51 -7 c-6 -6 -15 -8 -19 -4 -4 4
-1 11 7 16 19 12 27 3 12 -12z m-40 -40 c-9 -9 -12 -7 -12 12 0 19 3 21 12 12
9 -9 9 -15 0 -24z"/>
<path d="M1345 2510 c-6 -10 35 -90 47 -90 4 0 10 11 14 25 3 14 10 22 16 19
5 -3 16 0 24 7 12 10 8 15 -27 30 -46 21 -65 24 -74 9z m50 -30 c-3 -5 -12 -7
-20 -3 -21 7 -19 13 6 13 11 0 18 -4 14 -10z"/>
<path d="M2250 2469 c-14 -12 -33 -27 -44 -34 -17 -13 -17 -15 10 -50 22 -27
34 -34 52 -30 25 6 27 2 11 -27 -14 -25 -4 -35 17 -17 9 7 26 18 38 24 26 13
32 47 11 65 -13 11 -22 10 -57 -9 -43 -23 -51 -21 -63 17 -6 22 8 31 20 12 10
-17 25 -11 25 9 0 27 17 35 29 14 15 -27 23 -9 10 21 -15 31 -26 32 -59 5z
m80 -100 c0 -11 -4 -17 -10 -14 -5 3 -10 13 -10 21 0 8 5 14 10 14 6 0 10 -9
10 -21z"/>
<path d="M1272 2434 c-16 -33 -2 -59 40 -73 28 -10 35 -9 52 9 11 10 17 23 13
27 -4 4 -15 -1 -24 -10 -14 -14 -19 -14 -45 -1 -29 15 -35 28 -18 39 12 7 13
35 2 35 -5 0 -14 -12 -20 -26z"/>
<path d="M1230 2361 c0 -5 16 -18 35 -30 59 -34 42 -60 -24 -36 -48 17 -55 3
-10 -20 45 -24 83 -16 87 16 2 20 -4 32 -25 46 -35 25 -63 35 -63 24z"/>
<path d="M2363 2310 c4 -15 0 -20 -16 -20 -12 0 -33 -10 -47 -21 l-25 -20 35
6 c19 4 39 11 44 16 5 5 14 1 21 -8 22 -30 34 -10 18 30 -16 38 -39 52 -30 17z"/>
<path d="M1192 2242 c-11 -7 -35 -72 -29 -78 1 -1 29 -4 62 -6 l60 -3 -3 30
c-5 48 -54 79 -90 57z m66 -44 c3 -15 -4 -18 -32 -18 -34 0 -47 15 -29 34 13
13 58 1 61 -16z"/>
<path d="M2348 2222 c-56 -3 -84 -22 -33 -22 31 0 34 -29 5 -37 -11 -3 -20 -9
-20 -14 0 -15 30 -10 58 9 15 10 35 22 45 25 17 6 24 33 10 39 -5 2 -34 2 -65
0z m22 -32 c0 -5 -2 -10 -4 -10 -3 0 -8 5 -11 10 -3 6 -1 10 4 10 6 0 11 -4
11 -10z"/>
<path d="M1150 2100 c0 -30 0 -30 59 -30 64 0 76 8 65 42 -6 19 -7 19 -16 5
-11 -21 -42 -23 -34 -2 3 8 1 15 -4 15 -6 0 -10 -8 -11 -17 0 -15 -2 -15 -9 2
-7 17 -9 17 -9 3 -1 -22 -21 -24 -21 -3 0 8 -4 15 -10 15 -5 0 -10 -13 -10
-30z"/>
<path d="M2325 2121 c-39 -8 -43 -34 -10 -67 21 -21 32 -25 58 -20 36 7 47 20
47 57 0 37 -25 45 -95 30z m65 -42 c0 -17 -5 -20 -32 -17 -22 2 -34 9 -36 21
-3 14 4 17 32 17 30 0 36 -4 36 -21z"/>
</g>
</svg>
