<svg id="_0015_calendar" xmlns="http://www.w3.org/2000/svg" xmlns:xlink="http://www.w3.org/1999/xlink" viewBox="0 0 500 500" data-imageid="calendar-55" imageName="Calendar" class="illustrations_image" style="width: 171px;"><defs><style>.cls-1_calendar-55{fill:url(#linear-gradient);}.cls-1_calendar-55,.cls-2_calendar-55,.cls-3_calendar-55,.cls-4_calendar-55,.cls-5_calendar-55,.cls-6_calendar-55,.cls-7_calendar-55,.cls-8_calendar-55,.cls-9_calendar-55,.cls-10_calendar-55,.cls-11_calendar-55,.cls-12_calendar-55,.cls-13_calendar-55,.cls-14_calendar-55,.cls-15_calendar-55,.cls-16_calendar-55,.cls-17_calendar-55,.cls-18_calendar-55,.cls-19_calendar-55,.cls-20_calendar-55,.cls-21_calendar-55,.cls-22_calendar-55,.cls-23_calendar-55,.cls-24_calendar-55,.cls-25_calendar-55{stroke-width:0px;}.cls-2_calendar-55,.cls-13_calendar-55{isolation:isolate;opacity:.18;}.cls-2_calendar-55,.cls-25_calendar-55{fill:#68e1fd;}.cls-3_calendar-55{fill:url(#linear-gradient-11-calendar-55);}.cls-4_calendar-55{fill:url(#linear-gradient-12-calendar-55);}.cls-5_calendar-55{fill:url(#linear-gradient-13-calendar-55);}.cls-6_calendar-55{fill:url(#linear-gradient-10-calendar-55);}.cls-7_calendar-55{fill:url(#linear-gradient-17-calendar-55);}.cls-8_calendar-55{fill:url(#linear-gradient-16-calendar-55);}.cls-9_calendar-55{fill:url(#linear-gradient-19-calendar-55);}.cls-10_calendar-55{fill:url(#linear-gradient-15-calendar-55);}.cls-11_calendar-55{fill:url(#linear-gradient-18-calendar-55);}.cls-12_calendar-55{fill:url(#linear-gradient-14-calendar-55);}.cls-13_calendar-55{fill:#1d2741;}.cls-14_calendar-55{fill:url(#linear-gradient-4-calendar-55);}.cls-15_calendar-55{fill:url(#linear-gradient-2-calendar-55);}.cls-16_calendar-55{fill:url(#linear-gradient-3-calendar-55);}.cls-17_calendar-55{fill:url(#linear-gradient-8-calendar-55);}.cls-18_calendar-55{fill:url(#linear-gradient-9-calendar-55);}.cls-19_calendar-55{fill:url(#linear-gradient-7-calendar-55);}.cls-20_calendar-55{fill:url(#linear-gradient-5-calendar-55);}.cls-21_calendar-55{fill:url(#linear-gradient-6-calendar-55);}.cls-22_calendar-55{fill:#231f20;}.cls-23_calendar-55{fill:#fff;}.cls-24_calendar-55{fill:#ffaa71;}</style><linearGradient id="linear-gradient-calendar-55" x1="21.49" y1="1384.82" x2="-91.9" y2="1171.46" gradientTransform="translate(409 1612.94) scale(1 -1)" gradientUnits="userSpaceOnUse"><stop offset="0" stop-color="#231f20" stop-opacity="0"/><stop offset="1" stop-color="#231f20"/></linearGradient><linearGradient id="linear-gradient-2-calendar-55" x1="65.05" y1="1418.4" x2="3.49" y2="1442.41" gradientTransform="translate(409 1612.94) scale(1 -1)" gradientUnits="userSpaceOnUse"><stop offset="0" stop-color="#ecc4d7"/><stop offset=".16" stop-color="#edcbd5"/><stop offset=".42" stop-color="#efd4d1"/><stop offset=".7" stop-color="#f2eac9"/></linearGradient><linearGradient id="linear-gradient-3-calendar-55" x1="-132.15" y1="1618.82" x2="-144.78" y2="1445.45" xlink:href="#linear-gradient-calendar-55"/><linearGradient id="linear-gradient-4-calendar-55" x1="-164.13" y1="-888.45" x2="-161.14" y2="-842.15" gradientTransform="translate(409 942.5)" gradientUnits="userSpaceOnUse"><stop offset="0" stop-color="#000"/><stop offset=".1" stop-color="#000" stop-opacity=".77"/><stop offset=".99" stop-color="#000" stop-opacity="0"/></linearGradient><linearGradient id="linear-gradient-5-calendar-55" x1="-197.64" y1="1345.98" x2="-576.36" y2="1344.86" xlink:href="#linear-gradient-calendar-55"/><linearGradient id="linear-gradient-6-calendar-55" x1="478.94" y1="261.53" x2="176.45" y2="214.47" gradientTransform="matrix(1,0,0,1,0,0)" xlink:href="#linear-gradient-calendar-55"/><linearGradient id="linear-gradient-7-calendar-55" x1="-114.57" y1="1489.55" x2="-113.32" y2="1470.63" xlink:href="#linear-gradient-calendar-55"/><linearGradient id="linear-gradient-8-calendar-55" x1="-114.57" y1="1440.56" x2="-113.32" y2="1421.63" xlink:href="#linear-gradient-calendar-55"/><linearGradient id="linear-gradient-9-calendar-55" x1="-105.45" y1="1440.56" x2="-104.21" y2="1421.63" xlink:href="#linear-gradient-calendar-55"/><linearGradient id="linear-gradient-10-calendar-55" x1="-96.28" y1="1440.56" x2="-95.04" y2="1421.63" xlink:href="#linear-gradient-calendar-55"/><linearGradient id="linear-gradient-11-calendar-55" x1="-114.57" y1="1341.9" x2="-113.33" y2="1322.97" xlink:href="#linear-gradient-calendar-55"/><linearGradient id="linear-gradient-12-calendar-55" x1="-105.45" y1="1341.9" x2="-104.21" y2="1322.97" xlink:href="#linear-gradient-calendar-55"/><linearGradient id="linear-gradient-13-calendar-55" x1="-96.28" y1="1341.9" x2="-95.04" y2="1322.97" xlink:href="#linear-gradient-calendar-55"/><linearGradient id="linear-gradient-14-calendar-55" x1="-308.16" y1="-536.96" x2="-304.04" y2="-572.44" gradientTransform="translate(409 942.5)" gradientUnits="userSpaceOnUse"><stop offset=".1" stop-color="#000" stop-opacity=".77"/><stop offset=".99" stop-color="#000" stop-opacity="0"/></linearGradient><linearGradient id="linear-gradient-15-calendar-55" x1="-292.61" y1="-591.27" x2="-313.71" y2="-593.32" xlink:href="#linear-gradient-14-calendar-55"/><linearGradient id="linear-gradient-16-calendar-55" x1="-319.68" y1="-590.57" x2="-320.41" y2="-543.22" gradientTransform="translate(409 942.5)" gradientUnits="userSpaceOnUse"><stop offset=".36" stop-color="#000" stop-opacity=".77"/><stop offset=".99" stop-color="#000" stop-opacity="0"/></linearGradient><linearGradient id="linear-gradient-17-calendar-55" x1="-321.63" y1="-550.71" x2="-320.88" y2="-525.57" xlink:href="#linear-gradient-4-calendar-55"/><linearGradient id="linear-gradient-18-calendar-55" x1="-295.89" y1="-547.07" x2="-312.14" y2="-516.64" xlink:href="#linear-gradient-4-calendar-55"/><linearGradient id="linear-gradient-19-calendar-55" x1="-294.98" y1="-569.14" x2="-304.5" y2="-536.27" xlink:href="#linear-gradient-14-calendar-55"/></defs><path id="background_calendar-55" class="cls-2_calendar-55 targetColor" d="M112.95,124.74c-28.63,15.29-58.13,31.31-78.08,56.92-11.98,15.4-19.97,33.73-24.17,52.8-7.2,32.55-1.87,70.3,22.91,92.68,8.62,7.83,19.17,13.35,30.04,17.59,22.54,8.78,46.78,12.37,70.9,10.51,19.81-1.55,39.58-6.76,59.29-4.28,24.04,3.02,45.03,17.08,67.42,26.34,27.83,11.46,58.13,15.59,88.01,12,7.53-.92,15.16-2.38,21.78-6.08,7.87-4.4,13.69-11.58,19.89-18.14,13.98-14.86,30.47-27.14,48.72-36.27,9.57-4.79,19.71-8.76,28.02-15.5,21.88-17.71,25.63-49.39,24.36-77.49-1.27-28.1-7.61-59.11-30.09-76.18-5.02-3.81-10.67-6.76-15.54-10.77-16.23-13.38-21.09-35.78-31.49-54.09-23.32-40.94-75.34-58.87-122.18-53.8-67.12,7.26-122.09,52.93-179.79,83.75Z" style="fill: rgb(104, 225, 253);"/><path id="shadow_calendar-55" class="cls-13_calendar-55" d="M83.34,424.12l-38.04,7.29c-1.29.01-2.32,1.07-2.31,2.36.01,1.29,1.07,2.32,2.36,2.31.11,0,.22,0,.33-.03h429.75c1.28.05,2.37-.95,2.42-2.23.05-1.23-.87-2.29-2.1-2.41l-55.45-6.98h-.32l-336.16-.33c-.16-.01-.32,0-.48.01Z"/><g id="character_calendar-55"><path class="cls-25_calendar-55 targetColor" d="M464.61,236.11c-.61,5.64-7.57,15.1-17.19,25.74-13.44,14.83-32.07,31.93-45.81,44.07v-109.34c3.51-2.46,7.11-4.28,10.37-4.65,12.12-1.37,36.59,12.81,36.59,12.81,0,0,18.08,11.77,16.04,31.37Z" style="fill: rgb(104, 225, 253);"/><path class="cls-1_calendar-55" d="M447.42,261.85c-15.77,17.4-38.68,37.93-52.46,49.88-1.03-1.64-1.23-3.87-1.33-5.88-.36-10.07-.28-20.16-.19-30.24.09-9.79.17-19.57.79-29.34.58-9.1,1.7-18.4,5.86-26.53.94.84,1.72,1.85,2.29,2.97,5.25,9.01,8.56,18.95,11.88,28.82,1.64,4.86,3.28,9.75,4.92,14.65,3.68-2.02,6.96-4.68,9.7-7.86,2.52-2.79,4.77-5.81,7.08-8.77,1.62-2.07,4.77-7.96,7.29-5.74,4.09,3.56,4.42,11.71,4.16,18.03Z"/><path class="cls-15_calendar-55" d="M464.16,173.91c-1.04,4.26.35,10.16-1.62,14.07-3.32,6.57-13.01,10.92-14.44,18.13-.09.42-10.88,5.62-16.44,3.84-2.91-.92-4.39-3.76-2.15-10.18.7-1.99,4.64-2.73,5.7-4.58l-.22-.17c-5.38-4.07-5.97-12.68-4.85-18.43,1.11-5.75,3.67-11.27,6.41-16.53,2.11-4.05,6.87-6.24,11.43-6.17,5.74.1,11.79,2.39,14.78,7.29,2.28,3.73,2.45,8.46,1.41,12.72Z"/><path class="cls-22_calendar-55" d="M437.66,142.94c-2.94,1.55-6.06,3.38-9.35,2.88-.17,1.61.54,3.18,1.87,4.11l-2.04.46c-.17.01-.33.1-.42.24-.05.15-.03.31.05.45.5,1.17,1.33,2.18,2.38,2.9-.36.78-1.68.61-2.14,1.33-.19.42-.19.91,0,1.33.46,1.24,1.23,2.33,2.25,3.16-1.22,1.33-.46,3.78,1.23,4.38,1.8.5,3.68-.48,4.28-2.25.08.77-.1,1.54-.5,2.2,5.56.88,11.51,1.7,16.63-.66-.24.53-.37,1.1-.38,1.68,1.24.39,2.55.47,3.82.24.27,2.73.02,5.49-.72,8.13-.46,1.64-1.11,3.24-1.41,4.91-.38,1.7-.08,3.48.84,4.96.88-.08,1.51-.91,1.84-1.72.24-.85.61-1.66,1.09-2.4,1.33-1.55,4.09-.98,5.15.74s.66,4.03-.36,5.76c-1.28,2.06-3.35,3.5-5.73,3.98.19,1.85.39,3.7.58,5.54,3.49-3.32,7.41-6.16,10.55-9.79,3.14-3.63,5.52-8.27,5.12-13.06-.25-2.95-1.53-5.76-1.63-8.72-.05-1.33.15-2.69.1-4.03-.25-4.36-3.08-8.16-7.2-9.64-1.69-.58-3.55-.74-5.05-1.72-1.86-1.21-2.83-3.46-4.68-4.69-1.99-1.33-5.08-1.87-7.39-2.53-3.01-.84-6.14.43-8.79,1.82Z"/><path class="cls-24_calendar-55" d="M395.94,205.69c-.48.29-.81.77-.92,1.33.05.59.49,1.07,1.07,1.18.57.1,1.15.07,1.7-.08l3.37-.66c-1.82,1.02-3.33,2.51-4.37,4.31-.25.43-.23.96.06,1.36.45.57,1.21.34,1.82.11l2.92-1.17-1.99,1.93c-.62.56-1.16,1.19-1.6,1.9-.19.33-.34.68-.42,1.05-.11.49.18.97.66,1.1.15.05.31.05.46,0,1.22-.35,2.35-.94,3.32-1.75-.72,1.01-1.52,1.96-2.39,2.83-.88.88-1.37,2.07-1.38,3.32,0,.13.05.26.13.37.1.1.23.16.36.17,1.08.18,2.06-.61,2.88-1.33l3-2.73c.48-.4.91-.86,1.27-1.37.2-.3.31-.64.32-1-.06-.73-.7-1.27-1.43-1.21h0c-.21.02-.42.09-.6.21.09-.58.31-1.11.45-1.68.17-.56.13-1.15-.11-1.68-.27-.54-.9-.78-1.46-.55.35-.69.58-1.44.66-2.21.07-.79-.3-1.56-.97-1.99-.18-.07-.35-.18-.49-.31-.27-.32-.05-.79.06-1.19.36-1-.15-2.11-1.15-2.47,0,0,0,0,0,0h0c-.27-.09-.55-.13-.84-.11-1.71.18-3.14,1.25-4.4,2.33Z"/><path class="cls-25_calendar-55 targetColor" d="M450.35,230.6c7.63-6.74,17.07-1.63,13.75,7.99-7.17,20.82-22.18,68.51-36.43,68.51-18.57,0-26.08-32.93-26.08-32.93l8.57-17.36s12.13,26.61,18.24,19.41c6.11-7.2,9.72-34.48,21.59-45.32l.35-.31Z" style="fill: rgb(104, 225, 253);"/><path class="cls-24_calendar-55" d="M407.37,255.68c-.11-1.54-.14-3.09-.08-4.64-.04-6.75-2.03-13.35-5.74-19-.39.56-.56,1.25-.47,1.92l.1,17.61c.06,1.46-.04,2.92-.29,4.36-.23,1.05-.61,2.05-.91,3.08-.63,2.15-.86,4.4-.66,6.63.06,1.2.38,2.37.95,3.43.59,1.07,1.66,1.78,2.86,1.94.39,0,1.99-3.32,2.22-3.77.71-1.33,1.37-2.66,1.99-4.01.46-1.02,1.43-2.53,1.26-3.67-.19-1.29-1.07-2.47-1.23-3.89Z"/><path class="cls-24_calendar-55" d="M442.81,199.68c-1.6,1.8-3.2,3.61-4.8,5.42-1.23,1.54-2.68,2.89-4.32,3.98-.64.38-1.32.67-2.03.88-2.91-.92-4.39-3.76-2.15-10.18.7-1.99,4.64-2.73,5.7-4.58l-.22-.17c.76.36,1.57.62,2.39.78,1.72.26,5.97-1.08,6.49,1.47.19.88-.44,1.71-1.07,2.39Z"/></g><g id="calendar_calendar-55"><rect class="cls-25_calendar-55 targetColor" x="123.79" y="73.63" width="271.63" height="314.59" style="fill: rgb(104, 225, 253);"/><rect class="cls-16_calendar-55" x="123.79" y="73.63" width="271.63" height="314.59"/><path class="cls-14_calendar-55" d="M358.09,88.83l-234.3,21c1.05,0,0-29.18,0-36.21h247.03v2.47c0,7.03-5.7,12.74-12.73,12.74Z"/><rect class="cls-25_calendar-55 targetColor" x="123.79" y="109.83" width="271.63" height="314.59" style="fill: rgb(104, 225, 253);"/><rect class="cls-20_calendar-55" x="123.79" y="109.83" width="38.62" height="314.59"/><rect class="cls-23_calendar-55" x="138.95" y="168.63" width="46.92" height="46.92"/><rect class="cls-23_calendar-55" x="188.48" y="168.63" width="46.92" height="46.92"/><rect class="cls-23_calendar-55" x="238.01" y="168.63" width="46.92" height="46.92"/><rect class="cls-23_calendar-55" x="287.53" y="168.63" width="46.92" height="46.92"/><rect class="cls-23_calendar-55" x="138.95" y="217.61" width="46.92" height="46.92"/><rect class="cls-23_calendar-55" x="188.48" y="217.61" width="46.92" height="46.92"/><rect class="cls-23_calendar-55" x="238.01" y="217.61" width="46.92" height="46.92"/><rect class="cls-23_calendar-55" x="287.53" y="217.61" width="46.92" height="46.92"/><rect class="cls-23_calendar-55" x="138.95" y="266.59" width="46.92" height="46.92"/><rect class="cls-23_calendar-55" x="188.48" y="266.59" width="46.92" height="46.92"/><rect class="cls-23_calendar-55" x="238.01" y="266.59" width="46.92" height="46.92"/><rect class="cls-23_calendar-55" x="287.53" y="266.59" width="46.92" height="46.92"/><rect class="cls-23_calendar-55" x="138.95" y="315.57" width="46.92" height="46.92"/><rect class="cls-23_calendar-55" x="188.48" y="315.57" width="46.92" height="46.92"/><rect class="cls-23_calendar-55" x="238.01" y="315.57" width="46.92" height="46.92"/><rect class="cls-23_calendar-55" x="287.53" y="315.57" width="46.92" height="46.92"/><rect class="cls-23_calendar-55" x="138.95" y="364.56" width="46.92" height="46.92"/><rect class="cls-23_calendar-55" x="188.48" y="364.56" width="46.92" height="46.92"/><rect class="cls-23_calendar-55" x="238.01" y="364.56" width="46.92" height="46.92"/><rect class="cls-23_calendar-55" x="336.23" y="168.63" width="46.92" height="46.92"/><rect class="cls-23_calendar-55" x="336.23" y="119.65" width="46.92" height="46.92"/><rect class="cls-23_calendar-55" x="287.53" y="119.65" width="46.92" height="46.92"/><rect class="cls-23_calendar-55" x="336.23" y="217.61" width="46.92" height="46.92"/><rect class="cls-23_calendar-55" x="336.23" y="266.59" width="46.92" height="46.92"/><rect class="cls-23_calendar-55" x="336.23" y="315.57" width="46.92" height="46.92"/><path class="cls-25_calendar-55 targetColor" d="M144.83,60.91v25.44c0,1.37,1.74,2.49,3.89,2.49h0c2.15,0,3.89-1.11,3.89-2.49v-25.44c0-1.37-1.74-2.49-3.89-2.49h0c-2.14,0-3.89,1.11-3.89,2.49Z" style="fill: rgb(104, 225, 253);"/><path class="cls-25_calendar-55 targetColor" d="M181.98,60.91v25.44c0,1.37,1.74,2.49,3.89,2.49h0c2.15,0,3.89-1.11,3.89-2.49v-25.44c0-1.37-1.74-2.49-3.89-2.49h0c-2.15,0-3.89,1.11-3.89,2.49Z" style="fill: rgb(104, 225, 253);"/><path class="cls-25_calendar-55 targetColor" d="M219.13,60.91v25.44c0,1.37,1.74,2.49,3.89,2.49h0c2.15,0,3.89-1.11,3.89-2.49v-25.44c0-1.37-1.74-2.49-3.89-2.49h0c-2.15,0-3.89,1.11-3.89,2.49Z" style="fill: rgb(104, 225, 253);"/><path class="cls-25_calendar-55 targetColor" d="M256.29,60.91v25.44c0,1.37,1.74,2.49,3.89,2.49h0c2.14,0,3.89-1.11,3.89-2.49v-25.44c0-1.37-1.74-2.49-3.89-2.49h0c-2.15,0-3.89,1.11-3.89,2.49Z" style="fill: rgb(104, 225, 253);"/><path class="cls-25_calendar-55 targetColor" d="M293.43,60.91v25.44c0,1.37,1.74,2.49,3.89,2.49h0c2.14,0,3.89-1.11,3.89-2.49v-25.44c0-1.37-1.74-2.49-3.89-2.49h0c-2.15,0-3.89,1.11-3.89,2.49Z" style="fill: rgb(104, 225, 253);"/><path class="cls-25_calendar-55 targetColor" d="M330.58,60.91v25.44c0,1.37,1.74,2.49,3.89,2.49h0c2.15,0,3.89-1.11,3.89-2.49v-25.44c0-1.37-1.74-2.49-3.89-2.49h0c-2.14,0-3.89,1.11-3.89,2.49Z" style="fill: rgb(104, 225, 253);"/><path class="cls-25_calendar-55 targetColor" d="M366.93,60.91v25.44c0,1.37,1.74,2.49,3.89,2.49h0c2.15,0,3.89-1.11,3.89-2.49v-25.44c0-1.37-1.74-2.49-3.89-2.49h0c-2.14,0-3.89,1.11-3.89,2.49Z" style="fill: rgb(104, 225, 253);"/><rect class="cls-25_calendar-55 targetColor" x="395.42" y="73.63" width="6.18" height="350.79" style="fill: rgb(104, 225, 253);"/><rect class="cls-21_calendar-55" x="395.43" y="73.62" width="6.18" height="350.8"/><path class="cls-19_calendar-55" d="M298.37,126.53c0,2.06-1.66,3.74-3.73,3.74-2.06,0-3.74-1.66-3.74-3.73,0-2.06,1.66-3.74,3.73-3.74h0c2.06,0,3.73,1.67,3.74,3.73Z"/><path class="cls-17_calendar-55" d="M298.37,175.51c0,2.06-1.66,3.74-3.73,3.74s-3.74-1.66-3.74-3.73c0-2.06,1.66-3.74,3.73-3.74h0c2.06,0,3.73,1.67,3.74,3.73Z"/><path class="cls-18_calendar-55" d="M307.49,175.51c0,2.06-1.66,3.74-3.73,3.74s-3.74-1.66-3.74-3.73c0-2.06,1.66-3.74,3.73-3.74h0c2.06,0,3.73,1.67,3.74,3.73Z"/><path class="cls-6_calendar-55" d="M316.66,175.51c0,2.06-1.66,3.74-3.73,3.74s-3.74-1.66-3.74-3.73c0-2.06,1.66-3.74,3.73-3.74h0c2.06,0,3.73,1.67,3.74,3.73Z"/><path class="cls-3_calendar-55" d="M298.37,274.18c0,2.06-1.67,3.73-3.73,3.73s-3.73-1.67-3.73-3.73,1.67-3.73,3.73-3.73h0c2.06,0,3.73,1.67,3.73,3.73h0Z"/><path class="cls-4_calendar-55" d="M307.49,274.18c0,2.06-1.67,3.73-3.73,3.73s-3.73-1.67-3.73-3.73,1.67-3.73,3.73-3.73h0c2.06,0,3.73,1.67,3.73,3.73h0Z"/><path class="cls-5_calendar-55" d="M316.66,274.18c0,2.06-1.67,3.73-3.73,3.73s-3.73-1.67-3.73-3.73,1.67-3.73,3.73-3.73h0c2.06,0,3.73,1.67,3.73,3.73h0Z"/><path class="cls-25_calendar-55 targetColor" d="M249.98,338.57l6.68,10.39c.62.96,1.91,1.24,2.87.62.16-.11.31-.24.44-.39l18.41-21.22c.75-.86.66-2.17-.2-2.92-.38-.33-.86-.51-1.36-.51h-.15c-.61,0-1.2.27-1.59.74l-14.4,17.24c-.73.87-2.03,1-2.9.27-.16-.13-.3-.29-.41-.46l-3.92-5.97c-.45-.67-1.24-1.03-2.04-.91h0c-1.12.19-1.88,1.26-1.69,2.38.04.25.13.49.26.71v.03Z" style="fill: rgb(104, 225, 253);"/><path class="cls-25_calendar-55 targetColor" d="M169.49,391.09l8.42,8.28c.82.81.83,2.14.02,2.96-.39.4-.93.62-1.49.62h-.36c-.56,0-1.09-.22-1.49-.61l-8.19-8.2c-.82-.82-2.14-.82-2.96,0l-8.19,8.2c-.39.39-.92.61-1.48.61h-.36c-1.16,0-2.1-.94-2.1-2.09,0-.56.22-1.1.62-1.49l8.42-8.28c.81-.81.81-2.13,0-2.94h0l-8.5-8.5c-.82-.82-.81-2.15,0-2.96.39-.39.92-.61,1.47-.61h0c.55,0,1.07.21,1.47.6l8.62,8.5c.82.8,2.12.8,2.94,0l8.62-8.5c.39-.38.92-.6,1.47-.6h0c1.16,0,2.1.94,2.1,2.09,0,.55-.22,1.09-.61,1.48l-8.5,8.5c-.8.82-.78,2.14.04,2.94h.03Z" style="fill: rgb(104, 225, 253);"/></g><g id="plant_calendar-55"><polygon class="cls-25_calendar-55 targetColor" points="94.44 365.05 96.5 365.05 97.52 411.51 96.5 403.85 94.44 403.85 94.44 365.05" style="fill: rgb(104, 225, 253);"/><path class="cls-25_calendar-55 targetColor" d="M96.5,381.98v.05c0,1.45-.52,2.9-1.07,4.64-3.62,1.05-6.03,1.89-9.59-1.78-3.55-3.67-7.22-10.78-6.06-14.36,3.62-1.05,10.68,2.77,14.24,6.44,1.84,1.88,2.47,3.45,2.48,5.01Z" style="fill: rgb(104, 225, 253);"/><path class="cls-25_calendar-55 targetColor" d="M107.1,384.92c-3.26,3.16-5.56,2.74-8.55,1.78v17.15h-2.06v-38.81h2.06v12.34c.19-.21.4-.42.62-.66,3.67-3.55,10.78-7.23,14.36-6.06,1.05,3.64-2.77,10.7-6.44,14.26Z" style="fill: rgb(104, 225, 253);"/><path class="cls-12_calendar-55" d="M107.1,384.92c-3.26,3.16-5.56,2.74-8.55,1.78v17.15h-2.06v-38.81h2.06v12.34c.19-.21.4-.42.62-.66,3.67-3.55,10.78-7.23,14.36-6.06,1.05,3.64-2.77,10.7-6.44,14.26Z"/><path class="cls-25_calendar-55 targetColor" d="M96.5,355.68h-9.18c0,6.52,4.1,11.8,9.17,11.8l2.16-5.79-2.16-6.01Z" style="fill: rgb(104, 225, 253);"/><path class="cls-25_calendar-55 targetColor" d="M96.66,357.94l-.16.11v-.66l.16.55Z" style="fill: rgb(104, 225, 253);"/><path class="cls-25_calendar-55 targetColor" d="M79.12,342.38c-1.16,3.59,2.51,10.7,6.07,14.36,3.56,3.67,5.97,2.84,9.58,1.78,1.16-3.59,2.15-6.03-1.41-9.71-3.56-3.67-10.62-7.49-14.24-6.44Z" style="fill: rgb(104, 225, 253);"/><path class="cls-25_calendar-55 targetColor" d="M106.44,356.79c-.31.3-.6.56-.9.8-.71,5.61-4.5,9.89-9.05,9.89v-9.43l.16-.11-.16-.56v.66c-.21.15-.43.28-.66.38-3.26-1.89-5.9-7.9-5.69-13.02s2.79-12.67,6.18-14.32c3.26,1.89,5.39,9.62,5.2,14.74v.38c3.76-2.58,8.62-4.56,11.39-3.66,1.03,3.63-2.8,10.68-6.47,14.24Z" style="fill: rgb(104, 225, 253);"/><path class="cls-10_calendar-55" d="M106.44,356.79c-.31.3-.6.56-.9.8-.71,5.61-4.5,9.89-9.05,9.89v-9.43l.16-.11-.16-.56v.66c-.21.15-.43.28-.66.38-3.26-1.89-5.9-7.9-5.69-13.02s2.79-12.67,6.18-14.32c3.26,1.89,5.39,9.62,5.2,14.74v.38c3.76-2.58,8.62-4.56,11.39-3.66,1.03,3.63-2.8,10.68-6.47,14.24Z"/><path class="cls-25_calendar-55 targetColor" d="M96.66,357.94l-.16.11v-.66l.16.55Z" style="fill: rgb(104, 225, 253);"/><polygon class="cls-25_calendar-55 targetColor" points="78.36 397.93 81.59 424.09 96.56 424.09 102.68 409.21 96.56 397.2 78.36 397.93" style="fill: rgb(104, 225, 253);"/><polygon class="cls-25_calendar-55 targetColor" points="114.77 397.93 111.54 424.09 96.56 424.09 96.56 397.2 114.77 397.93" style="fill: rgb(104, 225, 253);"/><path class="cls-25_calendar-55 targetColor" d="M103.23,397.38l-.17.08-5.08,2.52-1.39.7h-20.22c-1.27,0-2.3-1.03-2.3-2.3v-5.85c-.01-1.14.9-2.07,2.04-2.08h.19l20.29.04,6.63,6.89Z" style="fill: rgb(104, 225, 253);"/><path class="cls-8_calendar-55" d="M103.23,397.38l-.17.08-5.08,2.52-1.39.7h-20.22c-1.27,0-2.3-1.03-2.3-2.3v-5.85c-.01-1.14.9-2.07,2.04-2.08h.19l20.29.04,6.63,6.89Z"/><path class="cls-25_calendar-55 targetColor" d="M116.75,400.68h-20.19v-10.45h20.19c1.27,0,2.3,1.03,2.3,2.3v5.85c0,1.27-1.03,2.3-2.3,2.3Z" style="fill: rgb(104, 225, 253);"/><polygon class="cls-7_calendar-55" points="96.57 400.68 96.57 424.09 81.59 424.09 78.7 400.68 96.57 400.68"/><polygon class="cls-11_calendar-55" points="114.43 400.68 111.54 424.09 96.57 424.09 96.57 400.68 114.43 400.68"/><path class="cls-9_calendar-55" d="M119.05,392.8v5.85c0,1.27-1.03,2.3-2.3,2.3h-20.15v-10.45h20.18c1.26.02,2.27,1.04,2.27,2.3Z"/></g></svg>